<svg xmlns="http://www.w3.org/2000/svg" xmlns:svgjs="http://svgjs.com/svgjs" xmlns:xlink="http://www.w3.org/1999/xlink" width="288" height="288"><svg xmlns="http://www.w3.org/2000/svg" width="288" height="288" fill="none" viewBox="0 0 24 28"><path fill="#fdfdfd" d="M9.44801 26.234L9.58943 27.224 9.44801 26.234zM5.57192 26.0912L4.91672 26.8466 5.57192 26.0912zM17.8485 25.034L17.7071 24.044 17.8485 25.034zM22.2663 23.6618L21.5109 23.0066 22.2663 23.6618zM22.2663 4.22844L21.5109 4.88364 22.2663 4.22844zM5.57192 1.79903L4.91672 1.04358 5.57192 1.79903zM9.30659 2.64611L17.7071 3.84618 17.9899 1.86628 9.58943.666213 9.30659 2.64611zM22 8.79593V19.0943H24V8.79593H22zM17.7071 24.044L9.30659 25.2441 9.58943 27.224 17.9899 26.0239 17.7071 24.044zM5.88232 7.64525V5.61596H3.88232V7.64525H5.88232zM5.88232 22.2742V20.5011H3.88232V22.2742H5.88232zM9.30659 25.2441C8.21447 25.4001 7.50041 25.4997 6.97015 25.5007 6.46817 25.5016 6.3128 25.41 6.22712 25.3357L4.91672 26.8466C5.52064 27.3704 6.24115 27.502 6.97374 27.5007 7.67804 27.4994 8.55722 27.3714 9.58943 27.224L9.30659 25.2441zM3.88232 22.2742C3.88232 23.3169 3.87997 24.2054 3.97832 24.9028 4.08062 25.6282 4.3128 26.3228 4.91672 26.8466L6.22712 25.3357C6.14144 25.2614 6.02882 25.1205 5.95873 24.6235 5.88468 24.0984 5.88232 23.3774 5.88232 22.2742H3.88232zM22 19.0943C22 20.3609 21.9981 21.217 21.9162 21.8659 21.8377 22.4868 21.6989 22.7898 21.5109 23.0066L23.0218 24.317C23.5674 23.6878 23.7954 22.9476 23.9004 22.1165 24.0018 21.3134 24 20.3087 24 19.0943H22zM17.9899 26.0239C19.1922 25.8522 20.187 25.7119 20.9677 25.4979 21.7756 25.2765 22.4761 24.9461 23.0218 24.317L21.5109 23.0066C21.3229 23.2233 21.0426 23.4036 20.439 23.5691 19.8083 23.742 18.9609 23.8649 17.7071 24.044L17.9899 26.0239zM17.7071 3.84618C18.9609 4.0253 19.8083 4.14823 20.439 4.32113 21.0426 4.48658 21.3229 4.66689 21.5109 4.88364L23.0218 3.57324C22.4761 2.9441 21.7756 2.61374 20.9677 2.39228 20.187 2.17827 19.1922 2.03804 17.9899 1.86628L17.7071 3.84618zM24 8.79593C24 7.58145 24.0018 6.57684 23.9004 5.77367 23.7954 4.94257 23.5674 4.20237 23.0218 3.57324L21.5109 4.88364C21.6989 5.10039 21.8377 5.40341 21.9162 6.02431 21.9981 6.67316 22 7.52934 22 8.79593H24zM9.58943.666213C8.55722.518754 7.67804.390779 6.97374.389514 6.24115.388199 5.52064.519805 4.91672 1.04358L6.22712 2.55449C6.3128 2.48018 6.46817 2.38861 6.97015 2.38951 7.50041 2.39046 8.21447 2.49009 9.30659 2.64611L9.58943.666213zM5.88232 5.61596C5.88232 4.51275 5.88468 3.79178 5.95873 3.26671 6.02882 2.76965 6.14144 2.6288 6.22712 2.55449L4.91672 1.04358C4.3128 1.56735 4.08062 2.26201 3.97832 2.98742 3.87997 3.68482 3.88232 4.57327 3.88232 5.61596H5.88232zM16.5293 13.9451L17.3102 13.3204 17.8099 13.9451 17.3102 14.5698 16.5293 13.9451zM.999886 14.9451C.447601 14.9451-.000114441 14.4974-.000114441 13.9451-.000114441 13.3928.447601 12.9451.999886 12.9451V14.9451zM12.1337 6.84981L17.3102 13.3204 15.7484 14.5698 10.572 8.0992 12.1337 6.84981zM17.3102 14.5698L12.1337 21.0404 10.572 19.791 15.7484 13.3204 17.3102 14.5698zM16.5293 14.9451H.999886V12.9451H16.5293V14.9451z" class="colorF01A44 svgShape"/></svg></svg>