<svg width="456" height="196" viewBox="0 0 456 196" fill="none" xmlns="http://www.w3.org/2000/svg">
<path d="M142.876 28.2606V4.30779C142.401 4.934 141.926 5.56022 141.293 6.49955C140.66 7.43888 140.028 8.53476 139.395 9.63064C138.762 10.8831 138.129 12.1355 137.338 13.5445C136.547 14.9535 135.914 16.519 135.281 18.0846C134.648 19.6501 133.857 21.3722 133.224 23.0943C132.591 24.8164 131.958 26.5385 131.325 28.2606H127.844V0.0808105H131.484V18.2411C131.484 18.3977 131.484 18.3977 131.484 18.7108C131.484 18.8674 131.484 19.0239 131.484 19.337C131.484 19.4936 131.484 19.8067 131.484 19.9632C131.484 20.1198 131.484 20.4329 131.484 20.5895C131.484 20.4329 131.642 20.2764 131.642 20.1198C131.642 19.9632 131.8 19.6501 131.8 19.4936C131.8 19.337 131.958 19.0239 131.958 18.8674C131.958 18.7108 132.116 18.5543 132.116 18.3977C132.749 16.9887 133.224 15.7363 133.857 14.3273C134.49 13.0748 135.123 11.6659 135.756 10.4134C136.388 9.16098 137.021 8.0651 137.654 6.96921C138.287 5.87333 138.92 4.934 139.553 3.99468C139.869 3.05535 140.502 2.27258 140.977 1.64636C141.452 1.02014 141.926 0.39392 142.401 0.0808105H146.515V28.2606H142.876Z" fill="#154385"/>
<path d="M153.002 28.2612V7.90906H156.325V16.363H165.66V7.90906H168.983V28.2612H165.66V19.3375H156.325V28.2612H153.002Z" fill="#154385"/>
<path d="M180.849 18.0848C180.849 19.6503 181.007 20.9028 181.324 21.8421C181.64 22.7814 182.115 23.5642 182.59 24.1904C183.223 24.8166 183.855 25.1298 184.647 25.4429C185.438 25.5994 186.387 25.756 187.495 25.756C188.602 25.756 189.393 25.5994 190.184 25.4429C190.976 25.2863 191.608 25.1298 192.4 24.9732V27.9477C191.767 28.1043 190.976 28.4174 190.184 28.4174C189.393 28.574 188.444 28.574 187.495 28.574C184.172 28.574 181.64 27.6346 179.9 25.9125C178.318 24.1904 177.368 21.529 177.368 17.9282C177.368 16.2061 177.527 14.7972 178.001 13.5447C178.476 12.2923 178.951 11.0398 179.742 10.2571C180.533 9.31774 181.64 8.69152 182.748 8.22186C184.014 7.7522 185.438 7.43909 187.178 7.43909C188.127 7.43909 189.077 7.43909 189.868 7.59564C190.659 7.7522 191.45 7.90875 192.241 8.22186V11.1964C191.608 11.0398 190.817 10.7267 189.868 10.7267C189.077 10.5702 188.127 10.5702 187.02 10.5702C185.912 10.5702 185.121 10.7267 184.33 11.0398C183.539 11.353 182.906 11.8226 182.273 12.4488C181.799 13.0751 181.324 13.8578 181.007 14.7972C181.007 15.4234 180.849 16.6758 180.849 18.0848Z" fill="#154385"/>
<path d="M207.114 28.2612V10.8836H200.786V7.90906H216.924V10.8836H210.437V28.2612H207.114Z" fill="#154385"/>
<path d="M228 7.90906V21.2162C228 21.5293 228 21.6859 228 21.999C228 22.3121 228 22.6252 228 22.7817C228.475 21.6859 228.949 20.59 229.74 19.3375C230.373 18.0851 231.164 16.8327 231.956 15.5802C232.747 14.3278 233.696 12.9188 234.645 11.6664C235.595 10.4139 236.544 9.00494 237.493 7.90906H240.974V28.2612H237.493V14.7975C237.493 14.3278 237.493 13.8581 237.493 13.545C237.493 13.2319 237.493 12.7622 237.493 12.4491C236.702 13.3885 235.911 14.4844 235.12 15.7368C234.329 16.9892 233.38 18.2417 232.588 19.6507C231.797 21.0596 231.006 22.4686 230.215 24.0342C229.424 25.4432 228.791 27.0087 228 28.4177H224.677V8.06561H228V7.90906Z" fill="#154385"/>
<path d="M254.898 28.2612V10.8836H248.569V7.90906H264.708V10.8836H258.22V28.2612H254.898Z" fill="#154385"/>
<path d="M274.676 7.90881C274.834 8.53503 274.992 9.31781 275.15 10.2571C275.309 11.0399 275.625 11.9792 275.941 12.9186C276.258 13.8579 276.574 14.7972 276.891 15.8931C277.207 16.989 277.682 17.9283 277.998 19.0242C278.473 20.1201 278.789 21.0594 279.264 22.1553C279.739 23.0946 280.055 24.1905 280.53 25.1298C281.005 24.1905 281.321 23.2512 281.796 22.1553C282.27 21.216 282.587 20.1201 283.062 19.0242C283.536 17.9283 283.853 16.989 284.169 15.8931C284.486 14.9538 284.802 13.8579 285.118 12.9186C285.435 11.9792 285.593 11.0399 285.91 10.2571C286.068 9.47436 286.226 8.69159 286.384 7.90881H289.707C289.549 8.69159 289.39 9.63091 289.074 10.5702C288.758 11.6661 288.441 12.762 288.125 13.8579C287.808 15.1103 287.334 16.2062 286.859 17.4586C286.384 18.7111 285.91 19.9635 285.435 21.216C284.96 22.4684 284.486 23.7208 283.853 24.8167C283.378 25.9126 282.903 27.0085 282.429 27.9478C281.954 29.0437 281.321 30.1396 280.846 31.0789C280.214 32.0182 279.581 32.9576 278.948 33.7403C278.315 34.5231 277.524 35.1493 276.574 35.619C275.783 36.0886 274.676 36.2452 273.568 36.2452C273.568 36.2452 273.41 36.2452 273.252 36.2452C273.093 36.2452 272.935 36.2452 272.777 36.2452C272.619 36.2452 272.302 36.2452 272.144 36.0886C271.986 36.0886 271.669 35.9321 271.511 35.9321V32.9576C271.669 33.1141 271.986 33.1141 272.144 33.1141C272.302 33.1141 272.619 33.2707 272.777 33.2707C272.935 33.2707 273.093 33.2707 273.252 33.2707C273.41 33.2707 273.568 33.2707 273.568 33.2707C274.043 33.2707 274.517 33.1141 274.992 32.9576C275.467 32.801 275.941 32.4879 276.258 32.0182C276.733 31.5486 277.049 31.0789 277.524 30.4527C277.998 29.8265 278.315 28.8871 278.79 27.9478C278.315 27.0085 277.84 25.9126 277.365 24.6602C276.891 23.5643 276.258 22.3118 275.783 21.0594C275.309 19.807 274.834 18.5545 274.359 17.3021C273.885 16.0497 273.41 14.7972 273.093 13.5448C272.777 12.2923 272.302 11.1965 272.144 10.2571C271.828 9.16125 271.669 8.37848 271.511 7.5957H274.676V7.90881Z" fill="#154385"/>
<path d="M302.681 28.2612V10.8836H296.352V7.90906H312.491V10.8836H306.004V28.2612H302.681Z" fill="#154385"/>
<path d="M127.053 69.9047V41.7249H130.692V53.4664H131.009C131.484 53.4664 132.117 53.3099 132.749 53.1533C133.382 52.9968 134.015 52.6837 134.806 52.214C135.439 51.7444 136.23 51.2747 137.021 50.6485C137.813 50.0222 138.445 49.2395 139.078 48.4567C139.711 47.5174 140.344 46.578 140.977 45.4822C141.61 44.3863 142.085 43.1338 142.559 41.7249H146.357C145.882 43.2904 145.407 44.6994 144.774 45.9518C144.142 47.2043 143.509 48.4567 142.717 49.396C141.926 50.4919 141.135 51.4312 140.344 52.214C139.553 52.9968 138.604 53.7796 137.813 54.4058C138.92 55.5017 140.028 56.7541 141.135 58.1631C142.243 59.5721 143.192 60.8245 143.983 62.2335C144.933 63.6425 145.566 65.0515 146.198 66.3039C146.831 67.7129 147.148 68.8088 147.464 70.0612H143.667C143.35 69.1219 143.034 68.026 142.401 66.9301C141.926 65.8343 141.135 64.5818 140.502 63.3294C139.711 62.077 138.92 60.8245 137.813 59.5721C136.863 58.3196 135.756 57.2238 134.49 56.1279C133.857 56.441 133.224 56.5975 132.591 56.7541C131.958 56.9106 131.484 56.9107 130.851 56.9107H130.534V70.0612H127.053V69.9047Z" fill="#154385"/>
<path d="M151.894 59.7284C151.894 58.3194 152.053 56.9104 152.369 55.6579C152.686 54.4055 153.16 53.3096 153.951 52.2137C154.742 51.2744 155.534 50.4916 156.799 49.8654C157.907 49.2392 159.331 49.0826 161.071 49.0826C162.812 49.0826 164.236 49.3958 165.343 49.8654C166.451 50.4916 167.4 51.1179 168.191 52.2137C168.983 53.1531 169.457 54.2489 169.774 55.6579C170.09 56.9104 170.248 58.3194 170.248 59.7284C170.248 61.1373 170.09 62.5463 169.774 63.7988C169.457 65.0512 168.983 66.1471 168.191 67.243C167.4 68.1823 166.609 68.9651 165.343 69.5913C164.236 70.2175 162.812 70.3741 161.071 70.3741C159.331 70.3741 157.907 70.061 156.799 69.5913C155.692 68.9651 154.742 68.3389 153.951 67.243C153.318 66.3036 152.686 65.2078 152.369 63.7988C152.053 62.7029 151.894 61.2939 151.894 59.7284ZM155.375 59.7284C155.375 60.9808 155.534 62.0767 155.692 63.016C155.85 63.9553 156.166 64.7381 156.641 65.5209C157.116 66.1471 157.59 66.6168 158.382 67.0864C159.014 67.3995 159.964 67.5561 161.071 67.5561C162.179 67.5561 162.97 67.3995 163.761 67.0864C164.552 66.7733 165.027 66.3036 165.502 65.5209C165.976 64.8947 166.293 64.1119 166.451 63.016C166.609 62.0767 166.767 60.9808 166.767 59.7284C166.767 58.4759 166.609 57.38 166.451 56.4407C166.293 55.5014 165.976 54.7186 165.502 53.9358C165.027 53.3096 164.552 52.8399 163.761 52.3703C163.128 52.0572 162.179 51.9006 161.071 51.9006C159.964 51.9006 159.173 52.0572 158.382 52.3703C157.59 52.6834 157.116 53.1531 156.641 53.9358C156.166 54.562 155.85 55.3448 155.692 56.4407C155.534 57.38 155.375 58.4759 155.375 59.7284Z" fill="#154385"/>
<path d="M191.608 54.875C191.608 54.7184 191.608 54.7184 191.608 54.5619C191.608 54.4053 191.608 54.4053 191.608 54.2488C191.608 54.4053 191.45 54.4053 191.45 54.5619C191.45 54.7184 191.292 54.7184 191.292 54.875C190.343 56.4405 189.393 58.1626 188.602 59.8847C187.811 61.6068 187.02 63.4855 186.387 65.5207H183.539C183.223 64.5814 182.906 63.642 182.431 62.7027C182.115 61.7634 181.64 60.9806 181.324 60.0413C181.007 59.102 180.533 58.3192 180.058 57.5364C179.583 56.7536 179.109 55.8143 178.634 55.0315C178.634 55.0315 178.476 54.875 178.476 54.7184C178.476 54.5619 178.318 54.5619 178.318 54.4053C178.318 54.4053 178.318 54.5619 178.318 54.7184C178.318 54.875 178.318 54.875 178.318 55.0315V70.2173H174.995V49.8652H178.318C178.634 50.1783 178.95 50.648 179.425 51.1177C179.742 51.5873 180.216 52.2136 180.691 52.8398C181.166 53.466 181.482 54.2488 181.957 55.0315C182.431 55.8143 182.748 56.5971 183.064 57.3799C183.381 58.1626 183.855 58.9454 184.172 59.7282C184.488 60.5109 184.805 61.2937 184.963 61.9199C185.279 60.8241 185.754 59.7282 186.387 58.4757C186.862 57.2233 187.495 56.1274 188.127 54.875C188.76 53.7791 189.393 52.6832 190.026 51.7439C190.659 50.8046 191.292 50.1783 191.767 49.5521H195.089V69.9042H191.608V54.875Z" fill="#154385"/>
<path d="M200.944 69.9042V49.5521H216.766V69.9042H213.443V52.5267H204.266V69.9042H200.944Z" fill="#154385"/>
<path d="M232.905 57.5366C234.171 57.5366 235.278 57.6932 236.227 58.0063C237.177 58.3194 237.968 58.6325 238.601 59.2588C239.234 59.7284 239.708 60.3546 240.183 61.1374C240.499 61.9202 240.658 62.8595 240.658 63.7988C240.658 64.7382 240.499 65.6775 240.183 66.4603C239.867 67.243 239.392 67.8692 238.917 68.4955C238.284 68.9651 237.493 69.4348 236.702 69.7479C235.753 70.061 234.645 70.2176 233.538 70.2176H224.835V49.8655H228.158V58.3194C228.791 58.1629 229.424 58.1629 230.215 58.0063C231.164 57.5366 231.955 57.5366 232.905 57.5366ZM228.158 66.9299H233.379C233.854 66.9299 234.487 66.9299 234.962 66.7734C235.436 66.6168 235.753 66.4603 236.227 66.3037C236.544 65.9906 236.86 65.6775 237.019 65.3644C237.177 64.8947 237.335 64.425 237.335 63.7988C237.335 63.1726 237.177 62.7029 237.019 62.2333C236.86 61.7636 236.544 61.4505 236.069 61.1374C235.595 60.8243 235.278 60.6677 234.645 60.5112C234.171 60.3546 233.538 60.3546 232.905 60.3546C231.955 60.3546 231.164 60.3546 230.373 60.5112C229.582 60.6677 228.949 60.6677 228.316 60.8243V66.9299H228.158Z" fill="#154385"/>
<path d="M246.196 69.9045V49.5524H249.518V58.0063H253.157C253.157 56.7539 253.316 55.658 253.632 54.5621C253.79 53.4662 254.265 52.5269 254.74 51.7441C255.214 50.9614 256.005 50.3351 256.797 49.8655C257.746 49.3958 258.853 49.2393 260.119 49.2393C261.701 49.2393 262.809 49.5524 263.758 50.022C264.708 50.6482 265.341 51.2745 265.815 52.3704C266.29 53.3097 266.606 54.4056 266.765 55.8146C266.923 57.067 266.923 58.476 266.923 59.885C266.923 61.294 266.923 62.703 266.765 63.9554C266.606 65.2078 266.29 66.3037 265.815 67.3996C265.341 68.3389 264.549 69.1217 263.758 69.7479C262.809 70.3741 261.701 70.5307 260.119 70.5307C258.695 70.5307 257.588 70.2176 256.638 69.7479C255.689 69.2782 255.056 68.4955 254.581 67.7127C254.107 66.7734 253.79 65.834 253.474 64.5816C253.316 63.3292 253.157 62.0767 253.157 60.8243H249.518V70.061H246.196V69.9045ZM256.638 59.7284C256.638 61.1374 256.638 62.2333 256.797 63.3292C256.955 64.2685 257.113 65.0513 257.271 65.6775C257.588 66.3037 257.904 66.7734 258.379 67.0865C258.853 67.3996 259.486 67.5562 260.119 67.5562C260.91 67.5562 261.385 67.3996 261.86 67.0865C262.334 66.7734 262.651 66.3037 262.967 65.6775C263.284 65.0513 263.442 64.2685 263.442 63.3292C263.6 62.3898 263.6 61.1374 263.6 59.7284C263.6 58.3194 263.6 57.2235 263.6 56.1277C263.6 55.1883 263.442 54.4056 263.125 53.7793C262.967 53.1531 262.493 52.6835 262.018 52.3704C261.543 52.0572 260.91 51.9007 260.119 51.9007C259.328 51.9007 258.695 52.0572 258.221 52.3704C257.746 52.6835 257.429 53.1531 257.113 53.7793C256.955 54.4056 256.797 55.1883 256.638 56.1277C256.638 57.2235 256.638 58.3194 256.638 59.7284Z" fill="#154385"/>
<path d="M278.79 69.9042V52.5267H272.461V49.5521H288.599V52.5267H282.112V69.9042H278.79Z" fill="#154385"/>
<path d="M312.491 69.2784C311.858 69.435 311.384 69.5915 310.751 69.7481C310.118 69.9047 309.643 70.0612 309.01 70.0612C308.377 70.2178 307.745 70.2178 307.112 70.2178C306.479 70.2178 305.846 70.2178 305.055 70.2178C303.314 70.2178 301.732 69.9047 300.466 69.435C299.2 68.9653 298.093 68.3391 297.302 67.3998C296.511 66.4604 295.878 65.3646 295.561 64.1121C295.245 62.8597 294.928 61.2941 294.928 59.7286C294.928 58.0065 295.087 56.5975 295.561 55.1885C295.878 53.7795 296.511 52.6836 297.302 51.7443C298.093 50.805 299.042 50.1788 300.15 49.5525C301.257 49.0829 302.681 48.7698 304.264 48.7698C305.846 48.7698 307.112 49.0829 308.377 49.5525C309.485 50.0222 310.434 50.805 311.225 51.7443C312.017 52.6836 312.649 53.7795 312.966 55.032C313.441 56.2844 313.599 57.8499 313.599 59.4155V60.1983H298.568C298.568 62.5466 299.042 64.2687 300.15 65.5211C301.257 66.617 302.84 67.2432 305.213 67.2432C306.004 67.2432 306.637 67.2432 307.27 67.2432C307.903 67.2432 308.536 67.0867 309.01 67.0867C309.643 66.9301 310.118 66.9301 310.751 66.7736C311.384 66.617 311.858 66.4604 312.649 66.1473V69.2784H312.491ZM310.118 57.6934C309.96 55.8147 309.327 54.4057 308.377 53.4664C307.428 52.5271 306.162 52.0574 304.422 52.0574C302.681 52.0574 301.416 52.5271 300.466 53.4664C299.517 54.4057 298.884 55.8147 298.726 57.6934H310.118Z" fill="#154385"/>
<path d="M322.617 49.5523V51.2744C323.25 50.4916 324.041 50.022 324.991 49.7089C325.94 49.3957 326.889 49.0826 328.155 49.0826C329.263 49.0826 330.37 49.2392 331.478 49.7089C332.585 50.022 333.535 50.6482 334.326 51.431C335.117 52.2137 335.75 53.3096 336.225 54.5621C336.699 55.8145 337.016 57.38 337.016 59.2587C337.016 60.8242 336.857 62.0767 336.541 63.3291C336.225 64.425 335.75 65.3643 335.275 66.3036C334.801 67.0864 334.168 67.7126 333.535 68.3389C332.902 68.8085 332.111 69.2782 331.32 69.5913C330.529 69.9044 329.737 70.061 328.946 70.2175C328.155 70.3741 327.364 70.3741 326.731 70.3741C325.94 70.3741 325.307 70.3741 324.674 70.2175C324.041 70.061 323.567 70.061 323.092 69.9044V77.7321H319.769V49.5523H322.617ZM322.934 66.7733C323.408 66.9299 323.883 67.0864 324.516 67.243C325.149 67.3995 325.782 67.3995 326.731 67.3995C327.206 67.3995 327.68 67.3995 328.313 67.243C328.788 67.243 329.421 67.0864 329.896 66.9299C330.37 66.7733 330.845 66.4602 331.32 66.1471C331.794 65.834 332.111 65.3643 332.427 64.7381C332.744 64.1119 333.06 63.4857 333.218 62.5463C333.377 61.7636 333.535 60.6677 333.535 59.4152C333.535 57.8497 333.377 56.7538 333.06 55.6579C332.744 54.7186 332.427 53.9358 331.794 53.3096C331.32 52.6834 330.687 52.3703 329.896 52.0572C329.104 51.9006 328.472 51.7441 327.522 51.7441C326.889 51.7441 326.415 51.7441 325.782 51.9006C325.149 52.0572 324.832 52.2137 324.516 52.5268C324.2 52.8399 323.725 52.9965 323.567 53.3096C323.408 53.6227 323.092 53.9358 322.934 54.2489V66.7733Z" fill="#154385"/>
<path d="M344.136 69.9042V49.5521H347.459V58.0061H356.794V49.5521H360.116V69.9042H356.794V60.9806H347.459V69.9042H344.136Z" fill="#154385"/>
<path d="M373.882 57.5364C375.148 57.5364 376.255 57.693 377.204 58.0061C378.154 58.3192 378.945 58.6323 379.578 59.2585C380.211 59.7282 380.685 60.3544 381.16 61.1372C381.477 61.9199 381.635 62.8593 381.635 63.7986C381.635 64.7379 381.477 65.6772 381.16 66.46C380.844 67.2428 380.369 67.869 379.894 68.4952C379.261 68.9649 378.47 69.4346 377.679 69.7477C376.73 70.0608 375.622 70.2173 374.515 70.2173H365.971V49.8652H369.293V58.3192C369.926 58.1626 370.559 58.1626 371.508 58.0061C371.983 57.5364 372.932 57.5364 373.882 57.5364ZM369.135 66.9297H374.356C374.831 66.9297 375.464 66.9297 375.939 66.7731C376.413 66.6166 376.73 66.46 377.204 66.3035C377.521 65.9904 377.837 65.6772 377.996 65.3641C378.154 64.8945 378.312 64.4248 378.312 63.7986C378.312 63.1724 378.154 62.7027 377.996 62.233C377.837 61.7634 377.521 61.4503 377.046 61.1372C376.572 60.8241 376.255 60.6675 375.622 60.5109C375.148 60.3544 374.515 60.3544 373.882 60.3544C372.932 60.3544 372.141 60.3544 371.35 60.5109C370.559 60.6675 369.926 60.6675 369.293 60.8241V66.9297H369.135ZM383.059 69.9042V49.5521H386.381V69.9042H383.059Z" fill="#154385"/>
<path d="M408.533 49.5521C408.058 50.4915 407.742 51.4308 407.109 52.3701C406.634 53.3094 406.001 54.0922 405.527 54.875C405.052 55.6577 404.419 56.4405 403.786 57.2233C403.153 58.0061 402.52 58.7888 401.887 59.5716C402.52 60.3544 403.153 61.1372 403.944 61.9199C404.577 62.7027 405.21 63.642 405.843 64.4248C406.476 65.2076 406.951 66.1469 407.583 67.0862C408.058 68.0256 408.533 68.9649 409.007 69.9042H405.527C404.894 68.4952 404.103 67.0862 403.153 65.8338C402.204 64.5814 401.096 63.1724 399.989 61.9199C398.881 63.1724 397.774 64.5814 396.824 65.8338C395.875 67.0862 395.084 68.4952 394.451 69.9042H390.97C391.445 68.9649 391.761 68.0256 392.394 67.0862C392.869 66.1469 393.502 65.2076 394.134 64.4248C394.767 63.4855 395.4 62.7027 396.033 61.9199C396.666 61.1372 397.299 60.3544 398.09 59.5716C397.457 58.7888 396.824 58.0061 396.191 57.2233C395.558 56.4405 394.926 55.6577 394.451 54.875C393.818 54.0922 393.343 53.1529 392.869 52.3701C392.394 51.4308 391.919 50.648 391.445 49.7087H394.926C395.558 51.1177 396.191 52.3701 397.141 53.6225C398.09 54.875 399.039 56.1274 400.147 57.3799C401.254 56.1274 402.204 54.875 403.153 53.6225C404.103 52.3701 404.735 51.1177 405.368 49.7087H408.533V49.5521Z" fill="#154385"/>
<path d="M135.439 111.704V86.8123H127.212V83.5247H147.306V86.8123H139.078V111.704H135.439Z" fill="#154385"/>
<path d="M169.299 111.079C168.666 111.235 168.192 111.392 167.559 111.548C166.926 111.705 166.451 111.861 165.818 111.861C165.185 112.018 164.552 112.018 163.92 112.018C163.287 112.018 162.654 112.018 161.863 112.018C160.122 112.018 158.54 111.705 157.274 111.235C156.008 110.766 154.901 110.139 154.11 109.2C153.319 108.261 152.686 107.165 152.369 105.912C152.053 104.66 151.736 103.094 151.736 101.529C151.736 99.8068 151.895 98.3978 152.369 96.9888C152.844 95.5798 153.319 94.4839 154.11 93.5446C154.901 92.6053 155.85 91.9791 156.958 91.3528C158.065 90.8832 159.489 90.5701 161.071 90.5701C162.654 90.5701 163.92 90.8832 165.185 91.3528C166.293 91.8225 167.242 92.6053 168.033 93.5446C168.824 94.4839 169.457 95.5798 169.774 96.8322C170.248 98.0847 170.407 99.6502 170.407 101.216V101.999H155.217C155.217 104.347 155.692 106.069 156.799 107.321C157.907 108.574 159.489 109.043 161.863 109.043C162.654 109.043 163.287 109.043 163.92 109.043C164.552 109.043 165.185 108.887 165.66 108.887C166.293 108.73 166.768 108.73 167.4 108.574C168.033 108.417 168.508 108.261 169.299 107.948V111.079ZM166.768 99.3371C166.609 97.4585 165.976 96.0495 165.027 95.1102C164.078 94.1708 162.812 93.7012 161.071 93.7012C159.331 93.7012 158.065 94.1708 157.116 95.1102C156.167 96.0495 155.534 97.4585 155.375 99.3371H166.768Z" fill="#154385"/>
<path d="M193.507 91.1957C193.033 92.135 192.716 93.0743 192.083 94.0137C191.609 94.953 190.976 95.7358 190.501 96.5185C189.868 97.3013 189.393 98.0841 188.761 98.8668C188.128 99.6496 187.495 100.432 186.862 101.215C187.495 101.998 188.128 102.781 188.919 103.563C189.552 104.346 190.185 105.286 190.817 106.068C191.45 106.851 191.925 107.79 192.558 108.73C193.033 109.669 193.507 110.608 193.982 111.548H190.501C189.868 110.139 189.077 108.73 188.128 107.477C187.178 106.225 186.071 104.816 184.963 103.563C183.856 104.816 182.748 106.225 181.799 107.477C180.849 108.73 180.058 110.139 179.425 111.548H175.944C176.419 110.608 176.736 109.669 177.368 108.73C177.843 107.79 178.476 106.851 179.109 106.068C179.742 105.129 180.375 104.346 181.008 103.563C181.641 102.781 182.273 101.998 183.065 101.215C182.432 100.432 181.799 99.6496 181.166 98.8668C180.533 98.0841 179.9 97.3013 179.425 96.5185C178.792 95.7358 178.318 94.7964 177.843 94.0137C177.368 93.0743 176.894 92.2916 176.419 91.3522H179.9C180.533 92.7612 181.166 94.0137 182.115 95.2661C183.065 96.5185 184.014 97.771 185.121 99.0234C186.229 97.771 187.178 96.5185 188.128 95.2661C189.077 94.0137 189.71 92.7612 190.343 91.3522H193.507V91.1957Z" fill="#154385"/>
<path d="M200.786 111.705V91.3524H204.108V99.8064H213.443V91.3524H216.766V111.705H213.443V102.781H204.108V111.705H200.786Z" fill="#154385"/>
<path d="M223.57 101.529C223.57 100.12 223.728 98.7107 224.044 97.4582C224.361 96.2058 224.835 95.1099 225.626 94.014C226.418 93.0747 227.209 92.2919 228.475 91.6657C229.582 91.0395 231.006 90.8829 232.747 90.8829C234.487 90.8829 235.911 91.196 237.019 91.6657C238.126 92.2919 239.075 92.9181 239.867 94.014C240.658 95.1099 241.132 96.0492 241.449 97.4582C241.765 98.7107 241.923 100.12 241.923 101.529C241.923 102.938 241.765 104.347 241.449 105.599C241.132 106.852 240.658 107.947 239.867 109.043C239.075 109.983 238.284 110.765 237.019 111.392C235.911 112.018 234.487 112.174 232.747 112.174C231.006 112.174 229.582 111.861 228.475 111.392C227.367 110.765 226.418 110.139 225.626 109.043C224.994 108.104 224.361 107.008 224.044 105.599C223.728 104.347 223.57 102.938 223.57 101.529ZM227.05 101.529C227.05 102.781 227.209 103.877 227.367 104.816C227.525 105.756 227.842 106.538 228.316 107.321C228.791 107.947 229.266 108.417 230.057 108.887C230.69 109.2 231.639 109.356 232.747 109.356C233.854 109.356 234.645 109.2 235.436 108.887C236.227 108.574 236.702 108.104 237.177 107.321C237.651 106.695 237.968 105.912 238.126 104.816C238.284 103.877 238.443 102.781 238.443 101.529C238.443 100.276 238.284 99.1803 238.126 98.241C237.968 97.3017 237.651 96.5189 237.177 95.7361C236.702 95.1099 236.227 94.6402 235.436 94.1706C234.803 93.8575 233.854 93.7009 232.747 93.7009C231.639 93.7009 230.848 93.8575 230.057 94.1706C229.266 94.4837 228.791 94.9534 228.316 95.7361C227.842 96.3623 227.525 97.1451 227.367 98.241C227.209 99.3369 227.05 100.276 227.05 101.529Z" fill="#154385"/>
<path d="M252.841 91.1957H265.182V111.548H261.86V94.1702H256.005C256.005 96.8316 255.847 99.18 255.531 101.059C255.373 102.937 255.056 104.659 254.581 105.912C254.265 107.164 253.79 108.26 253.316 109.043C252.841 109.826 252.208 110.452 251.733 110.922C251.1 111.391 250.626 111.704 249.835 111.861C249.202 112.017 248.569 112.017 247.936 112.017V109.199C248.411 109.199 248.727 109.043 249.202 108.886C249.676 108.73 249.993 108.417 250.309 107.947C250.626 107.477 250.942 106.851 251.259 105.912C251.575 105.129 251.733 104.033 252.05 102.624C252.208 101.372 252.366 99.6496 252.524 97.771C252.683 96.0489 252.841 93.8571 252.841 91.1957Z" fill="#154385"/>
<path d="M271.353 101.529C271.353 100.12 271.511 98.7107 271.828 97.4582C272.144 96.2058 272.619 95.1099 273.41 94.014C274.201 93.0747 274.992 92.2919 276.258 91.6657C277.366 91.0395 278.79 90.8829 280.53 90.8829C282.271 90.8829 283.695 91.196 284.802 91.6657C285.91 92.2919 286.859 92.9181 287.65 94.014C288.441 95.1099 288.916 96.0492 289.232 97.4582C289.549 98.7107 289.707 100.12 289.707 101.529C289.707 102.938 289.549 104.347 289.232 105.599C288.916 106.852 288.441 107.947 287.65 109.043C286.859 109.983 286.068 110.765 284.802 111.392C283.695 112.018 282.271 112.174 280.53 112.174C278.79 112.174 277.366 111.861 276.258 111.392C275.151 110.765 274.201 110.139 273.41 109.043C272.777 108.104 272.144 107.008 271.828 105.599C271.511 104.347 271.353 102.938 271.353 101.529ZM274.834 101.529C274.834 102.781 274.992 103.877 275.151 104.816C275.309 105.756 275.625 106.538 276.1 107.321C276.575 107.947 277.049 108.417 277.84 108.887C278.631 109.2 279.423 109.356 280.53 109.356C281.638 109.356 282.429 109.2 283.22 108.887C284.011 108.574 284.486 108.104 284.96 107.321C285.435 106.695 285.751 105.912 285.91 104.816C286.068 103.877 286.226 102.781 286.226 101.529C286.226 100.276 286.068 99.1803 285.91 98.241C285.751 97.3017 285.435 96.5189 284.96 95.7361C284.486 95.1099 283.853 94.6402 283.22 94.1706C282.587 93.8575 281.638 93.7009 280.53 93.7009C279.423 93.7009 278.631 93.8575 277.84 94.1706C277.049 94.4837 276.575 94.9534 276.1 95.7361C275.625 96.3623 275.309 97.1451 275.151 98.241C274.992 99.3369 274.834 100.276 274.834 101.529Z" fill="#154385"/>
<path d="M298.409 91.1957H310.592V94.1702H301.732V111.548H298.409V91.1957Z" fill="#154385"/>
<path d="M323.567 91.1957V104.503C323.567 104.816 323.567 104.972 323.567 105.286C323.567 105.599 323.567 105.912 323.567 106.068C324.041 104.972 324.516 103.877 325.307 102.624C325.94 101.372 326.731 100.119 327.522 98.8668C328.314 97.6144 329.263 96.2054 330.212 94.953C331.162 93.7005 332.111 92.2916 333.06 91.1957H336.541V111.548H333.218V98.0841C333.218 97.6144 333.218 97.1447 333.218 96.8316C333.218 96.5185 333.218 96.0489 333.218 95.7358C332.427 96.6751 331.636 97.771 330.845 99.0234C330.054 100.276 329.105 101.528 328.314 102.937C327.522 104.346 326.731 105.755 325.94 107.321C325.149 108.73 324.516 110.295 323.725 111.704H320.402V91.3522H323.567V91.1957Z" fill="#154385"/>
<path d="M347.459 91.1957V104.503C347.459 104.816 347.459 104.972 347.459 105.286C347.459 105.599 347.459 105.912 347.459 106.068C347.933 104.972 348.408 103.877 349.199 102.624C349.832 101.372 350.623 100.119 351.414 98.8668C352.205 97.6144 353.155 96.2054 354.104 94.953C355.053 93.7005 356.003 92.2915 356.952 91.1957H360.433V111.548H357.11V98.0841C357.11 97.6144 357.11 97.1447 357.11 96.8316C357.11 96.5185 357.11 96.0488 357.11 95.7357C356.319 96.6751 355.528 97.771 354.737 99.0234C353.946 100.276 352.996 101.528 352.205 102.937C351.414 104.346 350.623 105.755 349.832 107.321C349.041 108.73 348.408 110.295 347.617 111.704H344.294V91.3522H347.459V91.1957ZM352.68 85.8728C353.155 85.8728 353.471 85.8728 353.787 85.7162C354.104 85.7162 354.42 85.5597 354.737 85.4031C355.053 85.2466 355.212 84.9335 355.528 84.6204C355.844 84.3072 355.844 83.8376 356.003 83.3679H359.009C358.851 84.1507 358.692 84.7769 358.376 85.4031C358.06 86.0293 357.585 86.499 357.11 86.9687C356.636 87.4383 356.003 87.7515 355.211 87.908C354.42 88.0646 353.629 88.2211 352.838 88.2211C352.047 88.2211 351.256 88.0646 350.465 87.908C349.674 87.7515 349.041 87.2818 348.566 86.9687C348.091 86.499 347.617 86.0293 347.3 85.4031C346.984 84.7769 346.826 84.1507 346.667 83.3679H349.674C349.674 83.8376 349.832 84.3072 350.148 84.6204C350.465 84.9335 350.623 85.2466 350.939 85.4031C351.256 85.5597 351.572 85.7162 351.889 85.7162C351.889 85.8728 352.205 85.8728 352.68 85.8728Z" fill="#154385"/>
<path d="M395.242 91.1957V104.503C395.242 104.816 395.242 104.972 395.242 105.286C395.242 105.599 395.242 105.912 395.242 106.068C395.717 104.972 396.191 103.877 396.983 102.624C397.615 101.372 398.407 100.119 399.198 98.8668C399.989 97.6144 400.938 96.2054 401.887 94.953C402.837 93.7005 403.786 92.2916 404.736 91.1957H408.216V111.548H404.894V98.0841C404.894 97.6144 404.894 97.1447 404.894 96.8316C404.894 96.5185 404.894 96.0489 404.894 95.7358C404.103 96.6751 403.311 97.771 402.52 99.0234C401.729 100.276 400.78 101.528 399.989 102.937C399.198 104.346 398.407 105.755 397.615 107.321C396.824 108.73 396.191 110.295 395.4 111.704H392.078V91.3522H395.242V91.1957Z" fill="#154385"/>
<path d="M142.876 153.348V129.395C142.401 130.021 141.926 130.648 141.293 131.587C140.66 132.526 140.028 133.622 139.395 134.718C138.762 135.814 138.129 137.223 137.338 138.632C136.547 140.041 135.914 141.606 135.281 143.172C134.648 144.738 133.857 146.46 133.224 148.182C132.591 149.904 131.958 151.626 131.325 153.348H127.844V125.168H131.484V143.329C131.484 143.485 131.484 143.485 131.484 143.798C131.484 143.955 131.484 144.111 131.484 144.424C131.484 144.581 131.484 144.894 131.484 145.051C131.484 145.207 131.484 145.52 131.484 145.677C131.484 145.52 131.642 145.364 131.642 145.207C131.642 145.051 131.8 144.738 131.8 144.581C131.8 144.424 131.958 144.111 131.958 143.955C131.958 143.798 132.116 143.642 132.116 143.485C132.749 142.076 133.224 140.824 133.857 139.415C134.49 138.162 135.123 136.753 135.756 135.657C136.388 134.561 137.021 133.309 137.654 132.213C138.287 131.117 138.92 130.178 139.553 129.239C140.186 128.299 140.66 127.517 141.293 126.89C141.768 126.264 142.243 125.638 142.717 125.325H146.831V153.505H142.876V153.348Z" fill="#154385"/>
<path d="M153.002 153.348V132.996H156.325V141.45H165.66V132.996H168.983V153.348H165.66V144.424H156.325V153.348H153.002Z" fill="#154385"/>
<path d="M186.545 125.168V133.152C186.862 132.996 187.336 132.839 187.811 132.683C188.286 132.526 188.76 132.526 189.235 132.526C190.343 132.526 191.45 132.683 192.241 132.996C193.032 133.309 193.665 133.935 194.298 134.718C194.773 135.501 195.089 136.597 195.406 138.006C195.564 139.415 195.722 141.137 195.722 143.172C195.722 145.207 195.564 146.929 195.406 148.338C195.247 149.747 194.773 150.843 194.298 151.626C193.823 152.409 193.191 153.035 192.399 153.348C191.608 153.661 190.659 153.818 189.393 153.818C188.919 153.818 188.286 153.818 187.811 153.661C187.336 153.661 186.862 153.505 186.387 153.348V161.176H183.064V153.348C182.59 153.505 182.115 153.661 181.64 153.661C181.166 153.661 180.691 153.818 180.058 153.818C178.95 153.818 177.843 153.661 177.052 153.348C176.261 153.035 175.628 152.409 175.153 151.626C174.678 150.843 174.362 149.747 174.046 148.338C173.887 146.929 173.729 145.207 173.729 143.172C173.729 141.137 173.887 139.415 174.046 138.006C174.204 136.597 174.678 135.501 175.153 134.718C175.628 133.935 176.261 133.309 177.052 132.996C177.843 132.683 178.792 132.526 180.058 132.526C180.533 132.526 181.007 132.526 181.482 132.683C181.957 132.839 182.431 132.996 182.748 133.152V125.168H186.545ZM180.849 151C181.957 151 182.748 150.843 183.381 150.373V136.284C183.223 136.127 183.064 135.97 182.906 135.97C182.748 135.814 182.431 135.814 182.273 135.657C182.115 135.657 181.799 135.501 181.64 135.501C181.482 135.501 181.166 135.501 181.007 135.501C180.375 135.501 179.742 135.657 179.425 135.814C178.951 136.127 178.634 136.44 178.476 137.066C178.318 137.693 178.159 138.475 178.001 139.415C178.001 140.354 177.843 141.606 177.843 143.172C177.843 144.738 177.843 145.99 177.843 146.929C177.843 147.869 178.001 148.651 178.159 149.278C178.318 149.904 178.634 150.217 179.109 150.53C179.425 150.843 180.058 151 180.849 151ZM189.077 151C189.868 151 190.501 150.843 190.817 150.687C191.134 150.53 191.608 150.06 191.767 149.434C191.925 148.808 192.083 148.025 192.083 147.086C192.083 146.147 192.083 144.894 192.083 143.329C192.083 141.92 192.083 140.667 191.925 139.571C191.767 138.475 191.767 137.849 191.45 137.223C191.292 136.597 190.817 136.127 190.501 135.97C190.026 135.657 189.551 135.657 188.919 135.657C188.76 135.657 188.444 135.657 188.286 135.657C188.127 135.657 187.811 135.814 187.653 135.814C187.495 135.814 187.178 135.97 187.02 136.127C186.862 136.284 186.703 136.284 186.545 136.44V150.53C187.178 150.687 187.969 151 189.077 151Z" fill="#154385"/>
<path d="M199.678 143.172C199.678 141.763 199.836 140.354 200.153 139.101C200.469 137.849 200.944 136.753 201.735 135.657C202.526 134.718 203.317 133.935 204.583 133.309C205.69 132.683 207.114 132.526 208.855 132.526C210.595 132.526 212.019 132.839 213.127 133.309C214.234 133.935 215.184 134.561 215.975 135.657C216.766 136.596 217.241 137.692 217.557 139.101C217.874 140.354 218.032 141.763 218.032 143.172C218.032 144.581 217.874 145.99 217.557 147.242C217.241 148.495 216.766 149.59 215.975 150.686C215.184 151.626 214.393 152.408 213.127 153.035C212.019 153.661 210.595 153.817 208.855 153.817C207.114 153.817 205.69 153.504 204.583 153.035C203.475 152.408 202.526 151.782 201.735 150.686C201.102 149.747 200.469 148.651 200.153 147.242C199.836 145.99 199.678 144.581 199.678 143.172ZM203.159 143.172C203.159 144.424 203.317 145.52 203.475 146.459C203.633 147.399 203.95 148.181 204.425 148.964C204.899 149.59 205.374 150.06 206.165 150.53C206.798 150.843 207.747 150.999 208.855 150.999C209.962 150.999 210.753 150.843 211.545 150.53C212.336 150.217 212.81 149.747 213.285 148.964C213.76 148.338 214.076 147.555 214.234 146.459C214.393 145.52 214.551 144.424 214.551 143.172C214.551 141.919 214.393 140.823 214.234 139.884C214.076 138.945 213.76 138.162 213.285 137.379C212.81 136.753 212.336 136.283 211.545 135.814C210.912 135.501 209.962 135.344 208.855 135.344C207.747 135.344 206.956 135.501 206.165 135.814C205.374 136.127 204.899 136.596 204.425 137.379C203.95 138.005 203.633 138.788 203.475 139.884C203.317 140.823 203.159 141.919 203.159 143.172Z" fill="#154385"/>
<path d="M227.051 132.996V134.718C227.684 134.092 228.475 133.465 229.424 133.152C230.373 132.839 231.323 132.526 232.588 132.526C233.696 132.526 234.804 132.683 235.911 133.152C237.019 133.465 237.968 134.092 238.759 134.874C239.55 135.657 240.183 136.753 240.658 138.005C241.133 139.258 241.449 140.823 241.449 142.702C241.449 144.268 241.291 145.52 240.974 146.772C240.658 147.868 240.183 148.808 239.709 149.747C239.234 150.53 238.601 151.156 237.968 151.782C237.335 152.252 236.544 152.722 235.753 153.035C234.962 153.348 234.171 153.504 233.38 153.661C232.588 153.817 231.797 153.817 231.164 153.817C230.373 153.817 229.74 153.817 229.108 153.661C228.475 153.504 228 153.504 227.525 153.348V161.176H224.203V132.996H227.051ZM227.367 150.217C227.842 150.373 228.316 150.53 228.949 150.686C229.582 150.843 230.215 150.843 231.164 150.843C231.639 150.843 232.114 150.843 232.747 150.686C233.221 150.686 233.854 150.53 234.329 150.373C234.804 150.217 235.278 149.904 235.753 149.59C236.228 149.277 236.544 148.808 236.861 148.181C237.177 147.555 237.493 146.929 237.652 145.99C237.81 145.207 237.968 144.111 237.968 142.859C237.968 141.45 237.81 140.197 237.493 139.101C237.177 138.162 236.861 137.379 236.228 136.753C235.753 136.127 235.12 135.814 234.329 135.501C233.538 135.344 232.905 135.187 231.956 135.187C231.323 135.187 230.848 135.187 230.215 135.344C229.74 135.501 229.266 135.657 228.949 135.97C228.633 136.283 228.316 136.44 228 136.753C227.684 137.066 227.525 137.379 227.367 137.692V150.217Z" fill="#154385"/>
<path d="M263.284 138.319C263.284 138.162 263.284 138.162 263.284 138.006C263.284 137.849 263.284 137.849 263.284 137.693C263.284 137.849 263.125 137.849 263.125 138.006C263.125 138.162 262.967 138.162 262.967 138.319C262.018 139.884 261.069 141.606 260.277 143.329C259.486 145.051 258.695 146.929 258.062 148.965H255.214C254.898 148.025 254.581 147.086 254.107 146.147C253.79 145.207 253.316 144.424 252.999 143.485C252.683 142.546 252.208 141.763 251.733 140.98C251.259 140.197 250.784 139.258 250.309 138.475C250.309 138.475 250.151 138.319 250.151 138.162C250.151 138.006 249.993 138.006 249.993 137.849C249.993 137.849 249.993 138.006 249.993 138.162C249.993 138.319 249.993 138.319 249.993 138.475V153.661H246.67V133.309H249.993C250.309 133.622 250.626 134.092 251.101 134.562C251.575 135.031 251.892 135.657 252.366 136.284C252.841 136.91 253.157 137.693 253.632 138.475C254.107 139.258 254.423 140.041 254.74 140.824C255.056 141.606 255.531 142.389 255.847 143.172C256.164 143.955 256.48 144.738 256.638 145.364C256.955 144.268 257.429 143.172 258.062 141.92C258.537 140.667 259.17 139.571 259.803 138.319C260.436 137.223 261.069 136.127 261.701 135.188C262.334 134.248 262.967 133.622 263.442 132.996H266.765V153.348H263.442V138.319H263.284Z" fill="#154385"/>
<path d="M286.068 151.626C285.593 152.095 284.96 152.408 284.486 152.722C284.011 153.035 283.378 153.191 282.903 153.348C282.429 153.504 281.796 153.661 281.163 153.661C280.53 153.661 279.897 153.817 279.264 153.817C278.157 153.817 277.049 153.661 276.1 153.348C275.15 153.035 274.359 152.722 273.726 152.095C273.094 151.626 272.619 150.843 272.302 150.217C271.986 149.434 271.828 148.651 271.828 147.712C271.828 146.616 271.986 145.677 272.461 144.894C272.935 144.111 273.41 143.328 274.201 142.859C274.992 142.389 275.783 141.919 276.733 141.606C277.682 141.293 278.79 141.137 280.055 141.137H285.593V139.414C285.593 138.162 285.119 137.223 284.327 136.596C283.378 135.97 282.112 135.501 280.055 135.501C279.422 135.501 278.948 135.501 278.473 135.501C277.998 135.501 277.524 135.501 277.207 135.657C276.733 135.657 276.416 135.814 275.942 135.814C275.625 135.97 275.15 135.97 274.676 136.127V133.152C275.15 133.152 275.467 132.996 275.942 132.996C276.416 132.996 276.733 132.839 277.207 132.839C277.682 132.839 277.998 132.683 278.473 132.683C278.948 132.683 279.422 132.683 280.055 132.683C281.638 132.683 282.903 132.839 284.011 133.152C285.119 133.465 286.068 133.935 286.701 134.561C287.492 135.187 287.967 135.814 288.283 136.753C288.599 137.692 288.758 138.475 288.758 139.414V153.504H285.751V151.626H286.068ZM285.751 143.955H280.214C279.422 143.955 278.631 144.111 277.998 144.268C277.366 144.424 276.891 144.737 276.574 145.05C276.258 145.364 275.942 145.833 275.783 146.146C275.625 146.616 275.467 147.086 275.467 147.555C275.467 148.182 275.625 148.651 275.783 149.121C275.942 149.591 276.258 149.904 276.733 150.217C277.207 150.53 277.682 150.686 278.157 150.843C278.79 150.999 279.264 150.999 280.055 150.999C281.321 150.999 282.429 150.843 283.378 150.53C284.327 150.217 285.119 149.59 285.751 148.808V143.955Z" fill="#154385"/>
<path d="M298.251 150.374H307.586V132.996H310.909V150.374H313.757V157.732H310.434V153.348H294.77V132.996H298.093V150.374H298.251Z" fill="#154385"/>
<path d="M323.567 132.996V146.303C323.567 146.616 323.567 146.773 323.567 147.086C323.567 147.399 323.567 147.712 323.567 147.869C324.041 146.773 324.516 145.677 325.307 144.424C325.94 143.172 326.731 141.92 327.522 140.667C328.314 139.415 329.263 138.006 330.212 136.753C331.162 135.501 332.111 134.092 333.06 132.996H336.541V153.348H333.218V139.884C333.218 139.415 333.218 138.945 333.218 138.632C333.218 138.319 333.218 137.849 333.218 137.536C332.427 138.475 331.636 139.571 330.845 140.824C330.054 142.076 329.105 143.329 328.314 144.738C327.522 146.147 326.731 147.556 325.94 149.121C325.149 150.53 324.516 152.096 323.725 153.505H320.402V133.153H323.567V132.996Z" fill="#154385"/>
<path d="M343.028 143.172C343.028 141.763 343.187 140.354 343.503 139.101C343.82 137.849 344.294 136.753 345.085 135.657C345.876 134.718 346.668 133.935 347.933 133.309C349.041 132.683 350.465 132.526 352.205 132.526C353.946 132.526 355.37 132.839 356.477 133.309C357.585 133.935 358.534 134.561 359.325 135.657C360.117 136.596 360.591 137.692 360.908 139.101C361.224 140.354 361.382 141.763 361.382 143.172C361.382 144.581 361.224 145.99 360.908 147.242C360.591 148.495 360.117 149.59 359.325 150.686C358.534 151.626 357.743 152.408 356.477 153.035C355.37 153.661 353.946 153.817 352.205 153.817C350.465 153.817 349.041 153.504 347.933 153.035C346.826 152.408 345.876 151.782 345.085 150.686C344.452 149.747 343.82 148.651 343.503 147.242C343.187 145.99 343.028 144.581 343.028 143.172ZM346.509 143.172C346.509 144.424 346.668 145.52 346.826 146.459C346.984 147.399 347.3 148.181 347.775 148.964C348.25 149.59 348.724 150.06 349.516 150.53C350.307 150.843 351.098 150.999 352.205 150.999C353.313 150.999 354.104 150.843 354.895 150.53C355.686 150.217 356.161 149.747 356.636 148.964C357.11 148.181 357.427 147.555 357.585 146.459C357.743 145.52 357.901 144.424 357.901 143.172C357.901 141.919 357.743 140.823 357.585 139.884C357.427 138.945 357.11 138.162 356.636 137.379C356.161 136.596 355.528 136.283 354.895 135.814C354.262 135.501 353.313 135.344 352.205 135.344C351.098 135.344 350.307 135.501 349.516 135.814C348.724 136.127 348.25 136.596 347.775 137.379C347.3 138.005 346.984 138.788 346.826 139.884C346.668 140.823 346.509 141.919 346.509 143.172Z" fill="#154385"/>
<path d="M368.028 153.348V132.996H371.35V141.45H380.685V132.996H384.008V153.348H380.685V144.424H371.35V153.348H368.028Z" fill="#154385"/>
<path d="M391.919 153.348V132.996H395.242V141.45H404.577V132.996H407.9V153.348H404.577V144.424H395.242V153.348H391.919Z" fill="#154385"/>
<path d="M414.703 143.172C414.703 141.763 414.862 140.354 415.178 139.101C415.495 137.849 415.969 136.753 416.76 135.657C417.551 134.718 418.343 133.935 419.608 133.309C420.716 132.683 422.14 132.526 423.88 132.526C425.621 132.526 427.045 132.839 428.152 133.309C429.26 133.935 430.209 134.561 431 135.657C431.792 136.596 432.266 137.692 432.583 139.101C432.899 140.354 433.057 141.763 433.057 143.172C433.057 144.581 432.899 145.99 432.583 147.242C432.266 148.495 431.792 149.59 431 150.686C430.209 151.626 429.418 152.408 428.152 153.035C427.045 153.661 425.621 153.817 423.88 153.817C422.14 153.817 420.716 153.504 419.608 153.035C418.501 152.408 417.551 151.782 416.76 150.686C416.127 149.747 415.495 148.651 415.178 147.242C414.862 145.99 414.703 144.581 414.703 143.172ZM418.184 143.172C418.184 144.424 418.343 145.52 418.501 146.459C418.659 147.399 418.976 148.181 419.45 148.964C419.925 149.59 420.4 150.06 421.191 150.53C421.982 150.843 422.773 150.999 423.88 150.999C424.988 150.999 425.779 150.843 426.57 150.53C427.361 150.217 427.836 149.747 428.311 148.964C428.785 148.338 429.102 147.555 429.26 146.459C429.418 145.52 429.576 144.424 429.576 143.172C429.576 141.919 429.418 140.823 429.26 139.884C429.102 138.945 428.785 138.162 428.311 137.379C427.836 136.753 427.203 136.283 426.57 135.814C425.937 135.501 424.988 135.344 423.88 135.344C422.773 135.344 421.982 135.501 421.191 135.814C420.4 136.127 419.925 136.596 419.45 137.379C418.976 138.005 418.659 138.788 418.501 139.884C418.343 140.823 418.184 141.919 418.184 143.172Z" fill="#154385"/>
<path d="M443.026 132.996V146.303C443.026 146.616 443.026 146.773 443.026 147.086C443.026 147.399 443.026 147.712 443.026 147.868C443.5 146.773 443.975 145.677 444.766 144.424C445.399 143.172 446.19 141.919 446.981 140.667C447.772 139.414 448.722 138.006 449.671 136.753C450.62 135.501 451.57 134.092 452.519 132.996H456V153.348H452.677V139.884C452.677 139.414 452.677 138.945 452.677 138.632C452.677 138.319 452.677 137.849 452.677 137.536C451.886 138.475 451.095 139.571 450.304 140.823C449.513 142.076 448.563 143.328 447.772 144.737C446.981 146.146 446.19 147.555 445.399 149.121C444.608 150.53 443.975 152.095 443.184 153.504H439.861V133.152H443.026V132.996ZM448.247 127.516C448.722 127.516 449.038 127.516 449.354 127.36C449.671 127.36 449.987 127.203 450.304 127.047C450.62 126.89 450.778 126.577 451.095 126.264C451.253 125.951 451.411 125.481 451.57 125.011H454.576C454.418 125.794 454.259 126.42 453.943 127.047C453.626 127.673 453.152 128.143 452.677 128.612C452.202 129.082 451.57 129.395 450.778 129.552C449.987 129.708 449.196 129.865 448.405 129.865C447.614 129.865 446.823 129.708 446.032 129.552C445.241 129.395 444.608 128.925 444.133 128.612C443.658 128.143 443.184 127.673 442.867 127.047C442.551 126.42 442.393 125.794 442.234 125.011H445.241C445.241 125.481 445.399 125.951 445.715 126.264C445.874 126.577 446.19 126.89 446.506 127.047C446.823 127.203 447.139 127.36 447.456 127.36C447.456 127.516 447.772 127.516 448.247 127.516Z" fill="#154385"/>
<path d="M133.54 179.023C133.857 179.023 134.173 178.866 134.806 178.866C135.439 178.866 136.072 178.71 136.863 178.71C138.287 178.71 139.553 178.866 140.66 179.18C141.768 179.493 142.717 180.119 143.508 180.745C144.3 181.371 144.932 182.311 145.249 183.25C145.724 184.346 145.882 185.442 145.882 186.694C145.882 187.79 145.724 188.886 145.407 189.825C145.091 190.765 144.616 191.704 143.983 192.487C143.35 193.269 142.401 193.896 141.135 194.365C140.028 194.835 138.445 194.992 136.705 194.992H128.319V166.812H144.458V170.099H131.958V191.704H136.863C137.971 191.704 138.92 191.547 139.553 191.391C140.186 191.078 140.819 190.765 141.135 190.295C141.452 189.825 141.768 189.356 141.768 188.729C141.926 188.103 141.926 187.477 141.926 186.694C141.926 185.755 141.768 185.129 141.61 184.502C141.452 183.876 141.135 183.407 140.66 183.093C140.186 182.78 139.711 182.467 138.92 182.311C138.287 182.154 137.496 181.998 136.547 181.998C136.23 181.998 135.914 181.998 135.597 181.998C135.281 181.998 134.964 181.998 134.648 182.154C134.331 182.154 134.173 182.311 133.857 182.311C133.54 182.311 133.54 182.467 133.382 182.467V179.023H133.54Z" fill="#154385"/>
<path d="M169.299 194.522C168.666 194.678 168.192 194.835 167.559 194.991C166.926 195.148 166.451 195.304 165.818 195.304C165.185 195.461 164.552 195.461 163.92 195.461C163.287 195.461 162.654 195.461 161.863 195.461C160.122 195.461 158.54 195.148 157.274 194.678C156.008 194.209 154.901 193.582 154.11 192.643C153.319 191.704 152.686 190.608 152.369 189.355C152.053 188.103 151.736 186.537 151.736 184.972C151.736 183.25 151.895 181.841 152.369 180.432C152.844 179.023 153.319 177.927 154.11 176.988C154.901 176.048 155.85 175.422 156.958 174.796C158.065 174.326 159.489 174.013 161.071 174.013C162.654 174.013 163.92 174.326 165.185 174.796C166.293 175.265 167.242 176.048 168.033 176.988C168.824 177.927 169.457 179.023 169.774 180.275C170.248 181.528 170.407 183.093 170.407 184.659V185.442H155.217C155.217 187.79 155.692 189.512 156.799 190.764C157.907 191.86 159.489 192.487 161.863 192.487C162.654 192.487 163.287 192.487 163.92 192.487C164.552 192.487 165.185 192.33 165.66 192.33C166.293 192.173 166.768 192.173 167.4 192.017C168.033 191.86 168.508 191.704 169.299 191.391V194.522ZM166.768 182.78C166.609 180.901 165.976 179.492 165.027 178.553C164.078 177.614 162.812 177.144 161.071 177.144C159.331 177.144 158.065 177.614 157.116 178.553C156.167 179.492 155.534 180.901 155.375 182.78H166.768Z" fill="#154385"/>
<path d="M184.014 192.643C185.912 192.643 187.178 192.33 187.969 191.861C188.76 191.234 189.235 190.452 189.235 189.199C189.235 188.103 188.76 187.32 187.969 186.851C187.02 186.381 185.754 186.225 184.014 186.225H180.533V183.25H184.014C184.488 183.25 185.121 183.25 185.596 183.093C186.071 182.937 186.545 182.78 187.02 182.624C187.495 182.467 187.811 182.154 187.969 181.684C188.286 181.371 188.286 180.745 188.286 180.275C188.286 179.649 188.127 179.18 187.969 178.867C187.811 178.397 187.495 178.24 187.02 177.927C186.703 177.614 186.229 177.458 185.596 177.458C185.121 177.301 184.488 177.301 183.855 177.301C182.748 177.301 181.64 177.301 180.691 177.458C179.742 177.614 178.951 177.771 178.159 177.927V174.796C178.792 174.64 179.583 174.64 180.533 174.483C181.482 174.326 182.59 174.326 183.855 174.326C185.121 174.326 186.071 174.483 187.178 174.64C188.127 174.953 188.919 175.266 189.71 175.735C190.343 176.205 190.976 176.831 191.292 177.614C191.608 178.397 191.767 179.18 191.767 180.119C191.767 180.589 191.767 181.058 191.608 181.371C191.45 181.684 191.292 182.154 190.976 182.467C190.659 182.78 190.501 183.093 190.184 183.407C189.868 183.72 189.551 183.876 189.235 184.033C189.868 184.189 190.343 184.502 190.817 184.816C191.292 185.129 191.608 185.598 191.925 185.911C192.241 186.381 192.4 186.851 192.558 187.32C192.716 187.79 192.716 188.26 192.716 188.886C192.716 189.825 192.558 190.765 192.083 191.547C191.608 192.33 191.134 192.956 190.343 193.583C189.551 194.209 188.76 194.522 187.653 194.835C186.545 195.148 185.279 195.305 184.014 195.305C183.381 195.305 182.748 195.305 182.115 195.305C181.482 195.305 180.849 195.148 180.216 195.148C179.583 195.148 178.951 194.992 178.476 194.835C178.001 194.679 177.527 194.679 177.21 194.522V191.391C178.001 191.704 178.951 191.861 180.216 192.174C181.324 192.487 182.59 192.643 184.014 192.643Z" fill="#154385"/>
<path d="M199.678 184.815C199.678 183.406 199.836 181.997 200.153 180.745C200.469 179.492 200.944 178.397 201.735 177.301C202.526 176.361 203.317 175.579 204.583 174.952C205.69 174.326 207.114 174.17 208.855 174.17C210.595 174.17 212.019 174.483 213.127 174.952C214.234 175.579 215.184 176.205 215.975 177.301C216.766 178.24 217.241 179.336 217.557 180.745C217.874 181.997 218.032 183.406 218.032 184.815C218.032 186.224 217.874 187.633 217.557 188.886C217.241 190.138 216.766 191.234 215.975 192.33C215.184 193.426 214.393 194.052 213.127 194.678C212.019 195.304 210.595 195.461 208.855 195.461C207.114 195.461 205.69 195.148 204.583 194.678C203.475 194.052 202.526 193.426 201.735 192.33C201.102 191.391 200.469 190.295 200.153 188.886C199.836 187.79 199.678 186.381 199.678 184.815ZM203.159 184.815C203.159 186.068 203.317 187.164 203.475 188.103C203.633 189.042 203.95 189.825 204.425 190.608C204.899 191.234 205.374 191.704 206.165 192.173C206.798 192.486 207.747 192.643 208.855 192.643C209.962 192.643 210.753 192.486 211.545 192.173C212.336 191.86 212.81 191.391 213.285 190.608C213.76 189.982 214.076 189.199 214.234 188.103C214.393 187.164 214.551 186.068 214.551 184.815C214.551 183.563 214.393 182.467 214.234 181.528C214.076 180.588 213.76 179.806 213.285 179.023C212.81 178.397 212.336 177.927 211.545 177.457C210.912 177.144 209.962 176.988 208.855 176.988C207.747 176.988 206.956 177.144 206.165 177.457C205.374 177.77 204.899 178.24 204.425 179.023C203.95 179.649 203.633 180.432 203.475 181.528C203.317 182.623 203.159 183.719 203.159 184.815Z" fill="#154385"/>
<path d="M224.835 195.148V174.796H240.658V195.148H237.335V177.614H228.158V194.991H224.835V195.148Z" fill="#154385"/>
<path d="M262.176 193.426C261.701 193.896 261.069 194.209 260.594 194.522C260.119 194.835 259.486 194.992 259.012 195.148C258.537 195.305 257.904 195.461 257.271 195.461C256.638 195.461 256.005 195.618 255.373 195.618C254.265 195.618 253.157 195.461 252.208 195.148C251.259 194.835 250.468 194.522 249.835 193.896C249.202 193.269 248.727 192.643 248.411 192.017C248.094 191.234 247.936 190.451 247.936 189.512C247.936 188.416 248.094 187.477 248.569 186.694C249.044 185.911 249.518 185.129 250.309 184.659C251.1 184.033 251.892 183.72 252.841 183.407C253.79 183.093 254.898 182.937 256.164 182.937H261.701V181.215C261.701 179.962 261.227 179.023 260.436 178.397C259.486 177.771 258.221 177.301 256.164 177.301C255.531 177.301 255.056 177.301 254.581 177.301C254.107 177.301 253.632 177.301 253.316 177.457C252.841 177.457 252.524 177.614 252.05 177.614C251.733 177.771 251.259 177.771 250.784 177.927V174.953C251.259 174.953 251.575 174.796 252.05 174.796C252.524 174.796 252.841 174.639 253.316 174.639C253.79 174.639 254.107 174.483 254.581 174.483C255.056 174.483 255.531 174.483 256.164 174.483C257.746 174.483 259.012 174.639 260.119 174.953C261.227 175.266 262.176 175.735 262.809 176.362C263.6 176.988 264.075 177.614 264.391 178.553C264.708 179.336 264.866 180.275 264.866 181.215V195.305H261.86V193.426H262.176ZM261.86 185.598H256.322C255.531 185.598 254.74 185.755 254.107 185.911C253.474 186.068 252.999 186.381 252.683 186.694C252.366 187.007 252.05 187.477 251.892 187.79C251.733 188.26 251.575 188.729 251.575 189.199C251.575 189.825 251.733 190.295 251.892 190.765C252.05 191.234 252.366 191.547 252.841 191.86C253.316 192.174 253.79 192.33 254.265 192.487C254.898 192.643 255.373 192.643 256.164 192.643C257.429 192.643 258.537 192.487 259.486 192.174C260.436 191.86 261.227 191.234 261.86 190.451V185.598Z" fill="#154385"/>
<path d="M276.416 184.815C276.416 186.381 276.574 187.633 276.891 188.573C277.207 189.512 277.682 190.295 278.157 190.921C278.79 191.547 279.422 191.86 280.214 192.173C281.005 192.33 281.954 192.486 283.062 192.486C284.169 192.486 284.96 192.33 285.751 192.173C286.543 192.017 287.175 191.86 287.967 191.704V194.678C287.334 194.835 286.543 195.148 285.751 195.148C284.96 195.304 284.011 195.304 283.062 195.304C279.739 195.304 277.207 194.365 275.467 192.643C273.885 190.921 272.935 188.259 272.935 184.659C272.935 182.937 273.094 181.528 273.568 180.275C274.043 179.023 274.518 177.77 275.309 176.988C276.1 176.048 277.207 175.422 278.315 174.952C279.581 174.483 281.005 174.17 282.745 174.17C283.695 174.17 284.644 174.17 285.435 174.326C286.226 174.483 287.017 174.639 287.808 174.952V177.927C287.175 177.77 286.384 177.457 285.435 177.457C284.644 177.301 283.695 177.301 282.587 177.301C281.479 177.301 280.688 177.457 279.897 177.77C279.106 178.083 278.473 178.553 277.84 179.179C277.366 179.806 276.891 180.588 276.574 181.528C276.574 182.31 276.416 183.563 276.416 184.815Z" fill="#154385"/>
<path d="M296.352 195.148V174.796H299.675V183.25H309.01V174.796H312.333V195.148H309.01V186.224H299.675V195.148H296.352Z" fill="#154385"/>
<path d="M319.137 184.815C319.137 183.406 319.295 181.997 319.611 180.745C319.928 179.492 320.402 178.397 321.193 177.301C321.985 176.361 322.776 175.579 324.041 174.952C325.149 174.326 326.573 174.17 328.314 174.17C330.054 174.17 331.478 174.483 332.586 174.952C333.693 175.579 334.642 176.205 335.434 177.301C336.225 178.24 336.699 179.336 337.016 180.745C337.332 181.997 337.49 183.406 337.49 184.815C337.49 186.224 337.332 187.633 337.016 188.886C336.699 190.138 336.225 191.234 335.434 192.33C334.642 193.426 333.851 194.052 332.586 194.678C331.478 195.304 330.054 195.461 328.314 195.461C326.573 195.461 325.149 195.148 324.041 194.678C322.934 194.052 321.985 193.426 321.193 192.33C320.561 191.391 319.928 190.295 319.611 188.886C319.295 187.79 319.137 186.381 319.137 184.815ZM322.617 184.815C322.617 186.068 322.776 187.164 322.934 188.103C323.092 189.042 323.409 189.825 323.883 190.608C324.358 191.234 324.833 191.704 325.624 192.173C326.415 192.486 327.206 192.643 328.314 192.643C329.421 192.643 330.212 192.486 331.003 192.173C331.794 191.86 332.269 191.391 332.744 190.608C333.218 189.982 333.535 189.199 333.693 188.103C333.851 187.164 334.01 186.068 334.01 184.815C334.01 183.563 333.851 182.467 333.693 181.528C333.535 180.588 333.218 179.806 332.744 179.023C332.269 178.24 331.636 177.927 331.003 177.457C330.37 177.144 329.421 176.988 328.314 176.988C327.206 176.988 326.415 177.144 325.624 177.457C324.833 177.77 324.358 178.24 323.883 179.023C323.409 179.649 323.092 180.432 322.934 181.528C322.776 182.623 322.617 183.719 322.617 184.815Z" fill="#154385"/>
<path d="M348.092 184.815C348.092 186.381 348.25 187.633 348.566 188.573C348.883 189.512 349.357 190.295 349.832 190.921C350.465 191.547 351.098 191.86 351.889 192.173C352.68 192.33 353.629 192.486 354.737 192.486C355.844 192.486 356.636 192.33 357.427 192.173C358.218 192.017 358.851 191.86 359.642 191.704V194.678C359.009 194.835 358.218 195.148 357.427 195.148C356.636 195.304 355.686 195.304 354.737 195.304C351.414 195.304 348.883 194.365 347.142 192.643C345.56 190.921 344.611 188.259 344.611 184.659C344.611 182.937 344.769 181.528 345.244 180.275C345.718 179.023 346.193 177.77 346.984 176.988C347.775 176.048 348.883 175.422 349.99 174.952C351.256 174.483 352.68 174.17 354.42 174.17C355.37 174.17 356.319 174.17 357.11 174.326C357.901 174.483 358.692 174.639 359.484 174.952V177.927C358.851 177.77 358.06 177.457 357.11 177.457C356.319 177.301 355.37 177.301 354.262 177.301C353.155 177.301 352.364 177.457 351.572 177.77C350.781 178.083 350.148 178.553 349.516 179.179C349.041 179.806 348.566 180.588 348.25 181.528C348.25 182.31 348.092 183.563 348.092 184.815Z" fill="#154385"/>
<path d="M374.357 195.148V177.614H368.028V174.639H384.166V177.614H377.679V194.991H374.357V195.148Z" fill="#154385"/>
<path d="M395.242 174.639V187.946C395.242 188.26 395.242 188.416 395.242 188.729C395.242 189.042 395.242 189.355 395.242 189.512C395.717 188.416 396.191 187.32 396.983 186.068C397.615 184.815 398.407 183.563 399.198 182.31C399.989 181.058 400.938 179.649 401.887 178.397C402.837 177.144 403.786 175.735 404.736 174.639H408.216V194.991H404.894V181.528C404.894 181.058 404.894 180.588 404.894 180.275C404.894 179.962 404.894 179.492 404.894 179.179C404.103 180.119 403.311 181.215 402.52 182.467C401.729 183.719 400.78 184.972 399.989 186.381C399.198 187.79 398.407 189.199 397.615 190.764C396.824 192.173 396.191 193.739 395.4 195.148H392.078V174.796H395.242V174.639Z" fill="#154385"/>
<path d="M98.7313 0.0808105C98.7313 0.0808105 96.358 1.4898 92.4024 7.12577C90.1872 10.2569 87.4974 14.6404 84.4912 20.746C82.4343 24.5033 80.3774 28.7303 78.1623 33.8966C77.6876 35.149 77.6876 36.2449 78.6369 37.1843C80.0609 38.7498 81.3267 40.6285 82.7507 42.3506C84.0165 43.9161 84.4912 45.4817 84.4912 47.5169C84.4912 96.0488 84.4912 144.581 84.4912 193.113V195.618H93.0353H98.7313V0.0808105Z" fill="#154385"/>
<path d="M43.3532 77.7317C42.0874 76.6358 41.6128 75.3834 41.6128 73.6613C41.6128 56.4403 41.771 39.3758 41.6128 22.1548C41.6128 10.5698 34.018 1.48958 22.4677 0.393703C15.1895 -0.38907 7.75295 0.237147 0 0.237147C0.949341 2.1158 1.58223 3.8379 2.53157 5.40345C4.7467 9.31732 7.91117 12.1353 12.8161 11.9787C14.0819 11.9787 15.3477 12.1353 16.4552 12.2919C21.9931 12.9181 24.6829 14.9533 25.7904 19.4934C26.2651 21.5286 26.4233 23.5638 26.4233 25.599C26.4233 41.5676 26.4233 57.5361 26.4233 73.6613C26.4233 79.2972 28.6384 83.5242 33.2269 86.9684C35.4421 88.534 37.499 90.0995 39.7141 91.665C40.8216 92.4478 41.9292 93.3871 43.195 94.483C39.7141 97.1445 36.3914 99.4928 33.2269 101.841C28.7967 105.285 26.4233 109.669 26.4233 115.305C26.4233 133.152 26.4233 151.156 26.4233 169.003C26.4233 171.038 26.4233 173.073 26.4233 175.109C26.2651 179.649 24.5246 181.997 20.0944 183.249C17.8792 183.876 15.6641 184.345 13.449 184.502C9.33518 184.658 6.17071 186.381 3.95559 189.668C2.6898 191.547 1.42401 193.582 0 195.93C7.75295 195.93 14.873 196.087 22.1513 195.93C25.9486 195.774 29.4296 194.365 32.4358 192.173C38.923 187.476 41.771 181.058 41.771 173.23C41.771 153.817 41.771 134.248 41.771 114.835C41.771 113.426 42.2457 112.487 43.195 111.547C48.5746 106.538 53.796 101.371 59.1756 96.2051C60.5996 94.9527 60.5996 93.8568 59.1756 92.6044C53.6377 87.4381 48.5746 82.4283 43.3532 77.7317Z" fill="#154385"/>
</svg>
